  <svg
      width="93"
      height="94"
      viewBox="0 0 93 94"
      fill="none"
      xmlns="http://www.w3.org/2000/svg"
    >
      <path
        d="M57.3132 33.6762C55.0674 34.8024 52.8696 36.0329 50.7387 37.3812C50.1787 37.7459 49.6079 38.0979 49.055 38.4769C48.5039 38.8585 47.955 39.2435 47.4131 39.635C44.554 41.7691 41.8349 44.0886 39.2732 46.5789C36.7231 49.0725 34.3226 51.7177 32.0844 54.5004C29.3378 57.9271 26.8522 61.5594 24.6491 65.3661C24.0846 66.3083 23.5815 67.2855 23.049 68.2455C22.793 68.7312 22.5479 69.2228 22.2967 69.711L21.9219 70.4443L21.5681 71.1881L20.8633 72.6771L20.2002 74.1851C19.9729 74.6851 19.77 75.1955 19.5644 75.7047C19.3619 76.2151 19.1441 76.7193 18.9539 77.2345C18.724 77.856 18.4722 78.4723 18.2099 79.0836C17.9618 79.7 17.7119 80.3144 17.4587 80.9212C17.2623 81.4165 17.0163 81.8902 16.7244 82.3348C16.5129 82.6517 16.2477 82.9285 15.941 83.1523C15.1669 83.6975 14.7882 82.8078 15.1939 81.009C15.3198 80.4406 15.508 79.8635 15.6961 79.2813C15.7921 78.9908 15.8923 78.7005 15.9948 78.4128C16.1037 78.1274 16.2188 77.8459 16.3322 77.5685C17.3657 75.0097 18.483 72.4961 19.684 70.0277C20.8837 67.5581 22.1671 65.1321 23.5342 62.7495C23.9209 62.098 24.3016 61.4232 24.7078 60.7708C25.1236 60.1249 25.5497 59.4914 25.994 58.9032C27.449 57.05 28.8822 55.1826 30.3846 53.3681C30.7589 52.9137 31.1479 52.4717 31.5285 52.0227L32.1027 51.3522L32.6957 50.6987C33.0934 50.2654 33.4832 49.825 33.8904 49.4015L35.1246 48.145C37.5879 45.6667 40.1864 43.3296 42.9079 41.1447C47.7796 37.2862 53.0584 33.9839 58.6481 31.2979C60.7104 30.2909 62.8842 29.5361 65.1235 29.0496C66.0528 28.8358 66.0852 29.118 65.1263 29.6576L64.6134 29.9422C64.4409 30.0355 64.2644 30.121 64.0889 30.2107C63.7348 30.3828 63.3883 30.5815 63.0348 30.7668L61.9727 31.3286C61.613 31.5044 61.2585 31.6934 60.9003 31.8726C59.7192 32.4543 58.5 33.0363 57.311 33.6457L57.3132 33.6762Z"
        fill="#7269E3"
      />
      <path
        d="M10.7969 64.0599C10.1478 63.4702 9.54431 62.8312 8.99166 62.1484C8.44925 61.4624 7.96038 60.7348 7.52948 59.9722C7.08333 59.1597 6.69398 58.3167 6.36426 57.4493C5.60883 55.5481 5.2339 53.5142 5.26115 51.4656C5.28043 49.4015 5.71159 47.3626 6.52882 45.4709L6.53733 45.4514C6.64936 45.1957 6.84245 44.985 7.08613 44.8526C7.3298 44.7201 7.61018 44.6735 7.88299 44.7201C8.31038 44.7934 8.73913 44.863 9.1575 44.9756L9.47286 45.0534L9.78279 45.1491C9.9881 45.2166 10.1985 45.2703 10.3985 45.3521C13.3078 46.4021 15.7804 48.4158 17.4141 51.0659L17.5669 51.3118L17.7055 51.5666C17.7964 51.7373 17.8925 51.905 17.9778 52.0784C18.1401 52.4295 18.3104 52.7768 18.442 53.1398C18.5908 53.4961 18.7 53.8658 18.8185 54.2317C18.8724 54.4162 18.9167 54.6033 18.9657 54.789L19.0368 55.0681L19.0926 55.3504C19.397 56.8515 19.4593 58.3925 19.277 59.9137C19.1577 60.8262 18.9097 61.7168 18.5406 62.5582C18.4041 62.8991 18.2058 63.2112 17.9558 63.4784C17.771 63.6705 17.5458 63.8181 17.2969 63.9104C17.2383 63.9403 17.174 63.9568 17.1084 63.9589C17.0428 63.9609 16.9775 63.9484 16.9172 63.9222C16.8569 63.896 16.803 63.8568 16.7593 63.8073C16.7156 63.7578 16.6832 63.6993 16.6643 63.6358C16.5624 63.3685 16.5817 62.9642 16.7009 62.4466C16.8473 61.7902 17.04 61.0945 17.1763 60.4169C17.338 59.6364 17.4109 58.8398 17.3934 58.0426C17.3807 57.2452 17.2757 56.4521 17.0807 55.6794C16.7051 54.1459 15.9655 52.728 14.9259 51.5484C14.3575 50.9034 13.6739 50.3444 13.0857 49.7655C12.3394 49.0314 11.4692 48.4382 10.5162 48.0138C9.56842 47.5885 8.56613 47.3003 7.53883 47.1575L8.74746 46.4874C8.52275 47.0223 8.30035 47.5593 8.12589 48.1161C7.49163 50.0285 7.41494 52.1206 7.69775 54.1231C7.94892 55.9242 8.56885 57.6527 9.51798 59.198C10.4833 60.7613 11.7524 62.1104 13.2484 63.1637C13.8558 63.5833 14.4456 63.9907 15.0114 64.3816C15.152 64.4888 15.2993 64.5778 15.4401 64.681C15.5818 64.7819 15.7168 64.8993 15.8589 64.9961C16.1424 65.1907 16.4078 65.4367 16.6904 65.6249C16.9464 65.8092 17.0529 65.9691 16.9969 66.1003C16.9417 66.2282 16.7204 66.3384 16.3258 66.3828C16.1864 66.3978 16.0442 66.4142 15.9031 66.4209C15.7671 66.4129 15.6317 66.3961 15.4979 66.3706C15.2256 66.3307 14.9562 66.2731 14.6912 66.1981C14.4232 66.127 14.1648 66.0272 13.9038 65.9289C13.6404 65.8353 13.3885 65.7155 13.1355 65.5967C12.3075 65.1707 11.533 64.646 10.8286 64.0337C10.8181 64.0424 10.8085 64.0504 10.7969 64.0599Z"
        fill="#7269E3"
      />
      <path
        d="M30.2439 40.1425C30.9513 38.8053 31.4039 37.3456 31.5781 35.8394C31.6811 35.0211 31.6947 34.1938 31.6188 33.3725C31.4254 31.5917 30.9798 29.8483 30.2955 28.1956C29.6141 26.5291 28.7578 24.9413 27.7413 23.4593L29.5856 23.3482C29.3695 23.7512 29.1435 24.1484 28.9369 24.5539L28.3235 25.7696C28.1641 26.0883 28.0079 26.4056 27.8568 26.7267C27.7114 27.0486 27.5602 27.3691 27.4214 27.6921C27.1344 28.3359 26.871 28.9842 26.622 29.6347C26.373 30.2851 26.1555 30.9414 25.9542 31.5993C25.7636 32.259 25.5933 32.9212 25.4625 33.5871C25.331 34.245 25.2403 34.9106 25.1909 35.58C25.1742 35.7459 25.1665 35.9122 25.163 36.0786C25.1586 36.2449 25.149 36.4112 25.1482 36.5773C25.1554 36.9092 25.1496 37.2417 25.1783 37.5714C25.1917 37.9026 25.2338 38.2295 25.271 38.5567C25.2874 38.7207 25.3229 38.8808 25.3475 39.0429C25.3755 39.2043 25.3967 39.3672 25.4345 39.5256C25.559 40.1616 25.7354 40.786 25.9619 41.3925C26.2207 42.1205 26.5233 42.8319 26.868 43.5225C27.0215 43.8083 27.1335 44.115 27.2005 44.4331C27.259 44.7003 27.2701 44.9758 27.2332 45.2469C27.1803 45.6292 26.9751 45.8646 26.6452 45.8866C26.445 45.8914 26.2466 45.8468 26.0673 45.7566C25.9488 45.7042 25.8377 45.6363 25.7369 45.5545C25.617 45.4619 25.5031 45.3616 25.3958 45.2544C24.8117 44.6285 24.3496 43.8969 24.0337 43.098C23.3266 41.3304 22.9395 39.4488 22.8911 37.5428C22.86 36.6083 22.8922 35.6727 22.9872 34.7427C23.0883 33.8204 23.2421 32.9048 23.4479 32.0005C23.6413 31.0001 23.9517 30.0266 24.3725 29.1003C24.9393 27.9508 25.5002 26.8179 26.077 25.7027L27.7754 22.3711C27.8507 22.2236 27.9621 22.0981 28.0991 22.0065C28.236 21.915 28.3938 21.8604 28.5576 21.8481C28.7213 21.8358 28.8854 21.8661 29.0343 21.9362C29.1831 22.0062 29.3116 22.1137 29.4077 22.2483L29.424 22.2718C29.5869 22.5026 29.7457 22.7363 29.9004 22.9726C30.0513 23.2114 30.1953 23.4545 30.3353 23.6995C31.4779 25.7228 32.4502 27.8689 33.0093 30.1592C33.5232 32.2103 33.669 34.338 33.4399 36.4412C33.3782 36.9693 33.2887 37.4937 33.1716 38.0122C33.0483 38.5298 32.8968 39.04 32.7177 39.5406C32.3616 40.5421 31.8889 41.4971 31.3097 42.3858C30.8693 43.079 30.3135 43.6898 29.6669 44.1913C29.3608 44.4231 29.0345 44.6262 28.6921 44.7983C28.5273 44.8811 28.3579 44.954 28.1847 45.0167C28.02 45.0837 27.8516 45.141 27.6803 45.1883C27.3681 45.2725 27.191 45.246 27.138 45.1165C27.113 45.0285 27.1171 44.9346 27.1496 44.8492C27.1691 44.7855 27.1933 44.7233 27.2222 44.6634C27.253 44.5893 27.2953 44.5207 27.3475 44.4601C27.6547 44.0891 27.9399 43.7033 28.2309 43.3312L28.444 43.0476L28.6449 42.7538C28.7872 42.5675 28.9127 42.3652 29.0508 42.1771C29.5071 41.5377 29.916 40.8652 30.2743 40.165L30.2439 40.1425Z"
        fill="#7269E3"
      />
      <path
        d="M51.7015 26.1168C52.1733 25.6093 52.6046 25.0647 52.9911 24.4882C53.3777 23.9064 53.7104 23.2898 53.9851 22.6462C54.0531 22.4738 54.1337 22.3046 54.1931 22.1283L54.3735 21.5989L54.5141 21.057C54.5623 20.8766 54.5835 20.6899 54.6155 20.5062C54.8411 18.911 54.7529 17.2865 54.356 15.7258C53.9661 14.181 53.2849 12.7268 52.3496 11.4431L54.4783 11.4502L53.003 13.4989C52.2242 14.5838 51.4349 15.6567 50.6878 16.7552C49.9561 17.8605 49.2044 18.9762 48.5825 20.0627C47.9701 21.0798 47.5228 22.1893 47.2575 23.3493C47.0574 24.495 47.0734 25.6687 47.3045 26.8084C47.4327 27.5326 47.5303 28.303 47.6526 29.0757C47.7145 29.3778 47.7126 29.6897 47.647 29.9911C47.5813 30.2924 47.4534 30.5763 47.2716 30.8242C46.7939 31.4524 45.9901 31.2572 45.5001 30.2438C45.1857 29.5603 44.9649 28.8367 44.8439 28.0929C44.6846 27.2165 44.5878 26.3297 44.5541 25.4394C44.5245 24.5176 44.6044 23.5955 44.7921 22.6929C44.8909 22.245 45.0144 21.8031 45.1622 21.3692C45.3115 20.9413 45.48 20.5263 45.6596 20.1209C46.0223 19.3129 46.4328 18.5491 46.8502 17.8115C47.3125 16.9957 47.7722 16.1726 48.3525 15.4959C48.734 15.0594 49.0898 14.6056 49.436 14.145C49.7835 13.6854 50.1249 13.2219 50.4603 12.7544C51.1333 11.8211 51.7909 10.8786 52.4676 9.95472L52.4948 9.91763C52.5845 9.79518 52.6972 9.69178 52.8264 9.61335C52.9557 9.53491 53.0989 9.48298 53.248 9.4605C53.3971 9.43803 53.5491 9.44546 53.6954 9.48237C53.8416 9.51928 53.9792 9.58494 54.1004 9.67562C54.2054 9.75485 54.2966 9.85134 54.3701 9.96106C54.5263 10.1961 54.6843 10.4299 54.8332 10.6688C54.9716 10.9139 55.1149 11.1563 55.2419 11.4066C56.2898 13.4226 56.876 15.6509 56.957 17.9267C57.0018 19.9475 56.6082 21.9537 55.8038 23.8043C55.0045 25.6286 53.838 27.2647 52.3786 28.6082C51.227 29.6695 49.844 30.357 48.4898 30.4018C48.1816 30.4179 48.0099 30.3466 47.9639 30.1915C47.9539 30.1487 47.9502 30.1046 47.9529 30.0607C47.9583 30.0059 47.9699 29.9519 47.9876 29.8998C48.0092 29.8351 48.0359 29.7723 48.0673 29.7118C48.1008 29.6395 48.145 29.5728 48.1985 29.514C48.2787 29.4314 48.3581 29.3479 48.4328 29.2561C48.5129 29.1781 48.5972 29.1046 48.6852 29.0359C48.8596 28.9007 49.0216 28.7437 49.1911 28.6011C49.3629 28.4616 49.5212 28.302 49.6867 28.1551C49.8548 28.0117 50.008 27.8488 50.1687 27.6984C50.6856 27.1919 51.2485 26.7088 51.728 26.1484L51.7015 26.1168Z"
        fill="#7269E3"
      />
      <path
        d="M71.481 30.0072C72.1669 30.1971 72.8647 30.3403 73.5696 30.4358C74.2732 30.5232 74.9824 30.5554 75.6909 30.5322C76.4427 30.5035 77.1879 30.3792 77.9088 30.1622C79.4682 29.6748 80.9262 28.9034 82.211 27.8861C83.4848 26.8803 84.58 25.6629 85.4498 24.2858L85.8979 26.1349L85.3832 25.8557C85.2102 25.7655 85.0327 25.6832 84.8581 25.5958C84.5039 25.431 84.1461 25.2727 83.78 25.1346C81.4399 24.2743 78.9291 23.997 76.4604 24.3263C75.8555 24.4092 75.2573 24.5356 74.6702 24.7045C74.0787 24.8806 73.4977 25.0912 72.9302 25.3351C72.3579 25.5826 71.7998 25.8624 71.2585 26.1732C70.714 26.4823 70.1866 26.8212 69.6787 27.1884C69.0602 27.6217 68.4091 28.0271 67.7899 28.4635C67.3079 28.8303 66.7029 28.9913 66.1047 28.912C65.9356 28.9031 65.7741 28.8386 65.6446 28.7283C65.5152 28.618 65.4249 28.468 65.3876 28.3011C65.3182 27.967 65.4362 27.5078 65.8 27.0387C66.2861 26.433 66.8617 25.9067 67.5064 25.4783C68.9478 24.4872 70.487 23.6497 72.0992 22.9793C72.9092 22.6378 73.7415 22.3529 74.5901 22.1267C75.4463 21.9022 76.3158 21.7334 77.1933 21.6213C78.1583 21.4962 79.1886 21.4199 80.1268 21.6024C81.3403 21.8309 82.5387 22.1348 83.7153 22.5123C84.8918 22.8882 86.0292 23.3793 87.1113 23.9787L87.1343 23.9919C87.2636 24.0658 87.3772 24.1647 87.4687 24.283C87.5602 24.4013 87.6277 24.5366 87.6674 24.6813C87.7071 24.826 87.7182 24.9771 87.7002 25.1261C87.6821 25.2751 87.6351 25.4191 87.562 25.5498C87.5466 25.5772 87.529 25.6057 87.5118 25.6313C87.3541 25.8649 87.198 26.0997 87.0345 26.3285C86.8596 26.5487 86.6907 26.7734 86.5065 26.9844C85.0424 28.7209 83.2465 30.1407 81.2263 31.1587C80.3244 31.5964 79.3826 31.9446 78.4142 32.1985C77.4432 32.4562 76.4471 32.6051 75.4439 32.6424C73.4687 32.6998 71.499 32.403 69.6263 31.7657C68.9074 31.5282 68.2232 31.1948 67.5916 30.7744C67.0113 30.3718 66.4997 29.8766 66.0766 29.3082C65.6966 28.8203 65.9645 28.5225 66.6188 28.6576C66.733 28.6844 66.8483 28.709 66.9675 28.7271C67.0837 28.75 67.1936 28.784 67.3064 28.8124C67.5256 28.881 67.7655 28.9097 67.9811 28.9839C68.195 29.062 68.4179 29.1228 68.6348 29.1943C68.8504 29.269 69.0728 29.3273 69.2904 29.3939C70.0084 29.6019 70.7249 29.881 71.4659 30.0446L71.481 30.0072Z"
        fill="#7269E3"
      />
      <path
        d="M54.2792 52.2367C55.4563 53.4317 56.7758 54.4739 58.2076 55.3394C58.9522 55.7964 59.7501 56.1585 60.5828 56.4173C61.6842 56.7522 62.8257 56.9335 63.9756 56.956C65.0958 56.9894 66.2137 56.8334 67.283 56.4944L67.6732 56.3644C67.8016 56.3176 67.9247 56.2587 68.0508 56.2072C68.3015 56.1038 68.546 55.9855 68.7829 55.8529C68.9035 55.7925 69.0205 55.725 69.1332 55.6506L69.4773 55.4385C69.4997 55.4255 69.5212 55.4113 69.5419 55.3957C69.5589 55.3844 69.5741 55.3712 69.5902 55.359C69.6218 55.3342 69.6507 55.3085 69.6764 55.2842C69.7097 55.2541 69.7393 55.22 69.7645 55.1827C69.7326 55.2378 69.7164 55.3007 69.7176 55.3646C69.713 55.4427 69.7224 55.521 69.7453 55.5958C69.7648 55.6615 69.7951 55.7235 69.8349 55.7791C69.895 55.8546 69.8723 55.8142 69.7566 55.7314L69.3824 55.4485L67.8843 54.309C66.6653 53.3619 65.4049 52.45 64.1745 51.5629C62.9699 50.6833 61.7158 49.8751 60.4186 49.1422C59.7869 48.7915 59.138 48.4735 58.4744 48.1895C57.8259 47.9159 57.161 47.6841 56.4835 47.4956C55.1596 47.1166 53.7801 46.9762 52.4081 47.0807C51.6002 47.1284 50.7967 47.2355 50.0042 47.4012C49.8306 47.4471 49.6537 47.4785 49.475 47.4952C49.3164 47.513 49.1567 47.5194 48.9971 47.5143C48.7065 47.5009 48.4196 47.4428 48.1463 47.342C47.7613 47.195 47.5585 46.9227 47.6123 46.5619C47.6541 46.344 47.7482 46.1399 47.8862 45.9674C48.0855 45.7311 48.3228 45.5305 48.588 45.3739C49.3981 44.9065 50.2948 44.613 51.2222 44.5118C53.2626 44.2903 55.3261 44.4671 57.3004 45.0328C59.2497 45.5826 61.0435 46.4424 62.7524 47.3943C63.6948 47.9196 64.6627 48.4829 65.4388 49.167C66.0584 49.7125 66.6813 50.2418 67.3075 50.7549C67.6218 51.011 67.9348 51.2663 68.2545 51.5144L69.2238 52.2442L71.1709 53.6928C71.2464 53.75 71.3456 53.8206 71.4736 53.9314C71.6376 54.0715 71.78 54.2354 71.8963 54.4178C72.0439 54.6559 72.1367 54.9245 72.168 55.2037C72.195 55.4677 72.167 55.7344 72.0859 55.9868C71.9647 56.3479 71.7633 56.676 71.4971 56.9461C71.3924 57.0551 71.2807 57.1569 71.1627 57.251C71.106 57.298 71.0475 57.3392 70.9893 57.3822C70.9333 57.4198 70.8623 57.4708 70.8187 57.494C69.6788 58.2007 68.4264 58.7027 67.1171 58.9776C65.8362 59.2522 64.5202 59.319 63.2185 59.1755C60.9446 58.9231 58.7524 58.1726 56.7947 56.9763C54.9037 55.8085 53.1744 54.3921 51.6523 52.7642C51.3463 52.4501 51.0653 52.1228 50.7969 51.7948C50.539 51.4677 50.2981 51.1273 50.075 50.775C49.8583 50.4367 49.659 50.0874 49.4777 49.7285C49.3089 49.3687 49.1506 49.0151 49.0112 48.6625C48.885 48.3362 48.8861 48.1351 49.0144 48.059C49.0518 48.0406 49.0923 48.0294 49.1339 48.026C49.1898 48.0235 49.2459 48.0282 49.3006 48.0401C49.373 48.0553 49.444 48.0763 49.5131 48.1028C49.6 48.1312 49.682 48.173 49.7562 48.2267C49.9766 48.391 50.1993 48.5571 50.4244 48.7249C50.65 48.8909 50.8512 49.0784 51.0623 49.2596C51.2702 49.4415 51.479 49.6242 51.6885 49.8076C51.8953 49.9916 52.11 50.1668 52.3059 50.3594C52.9659 50.9737 53.58 51.657 54.2466 52.2616C54.2573 52.2534 54.2674 52.2458 54.2792 52.2367Z"
        fill="#7269E3"
      />
      <path
        d="M36.7283 66.3554C37.1784 66.8174 37.6624 67.2444 38.1761 67.6328C38.6943 68.0198 39.2459 68.359 39.8243 68.6462C40.4344 68.9634 41.0848 69.194 41.7573 69.3316C43.208 69.6137 44.701 69.5872 46.1411 69.2537C46.8503 69.086 47.5422 68.8507 48.2075 68.551C48.5374 68.4029 48.8588 68.236 49.1701 68.0512C49.322 67.9541 49.4792 67.8648 49.6279 67.7634L49.8473 67.6061C49.9279 67.5645 50.0024 67.5137 50.0808 67.468L50.1037 69.405C49.9535 69.2847 49.8077 69.158 49.6542 69.0421L49.1893 68.7005L48.2572 68.02C47.248 67.3135 46.2183 66.638 45.1679 65.9937C44.1184 65.3503 43.0638 64.7007 42.02 64.1309C41.01 63.5626 39.9485 63.0935 38.8501 62.7298C38.3265 62.5656 37.7918 62.4398 37.2503 62.3534C36.723 62.2639 36.1886 62.2239 35.654 62.234C35.022 62.2311 34.3903 62.2656 33.7623 62.3374C33.4941 62.3799 33.2206 62.3757 32.9537 62.3249C32.8293 62.3009 32.7073 62.2657 32.5891 62.2196C32.4709 62.1769 32.3563 62.1247 32.2463 62.0636C31.9201 61.8839 31.737 61.612 31.7759 61.2831C31.8115 60.9573 32.076 60.561 32.5984 60.2801C33.2827 59.9246 34.0369 59.7279 34.806 59.7042C35.6518 59.6643 36.4993 59.7144 37.3348 59.8536C37.7448 59.919 38.1509 60.0077 38.5511 60.1195C38.9515 60.2262 39.3369 60.3533 39.7204 60.4879C41.2038 61.0458 42.6411 61.7216 44.0189 62.509C44.7777 62.8922 45.5006 63.3441 46.1787 63.8591C47.8308 65.2273 49.6283 66.3763 51.4113 67.555C51.5482 67.6456 51.6617 67.7678 51.7426 67.9115C51.8234 68.0553 51.8693 68.2164 51.8764 68.3816C51.8834 68.5468 51.8515 68.7113 51.7832 68.8616C51.7149 69.0118 51.6122 69.1435 51.4835 69.2457L51.4318 69.2861L51.1168 69.5337C51.007 69.6096 50.8998 69.6898 50.7872 69.7607C50.5586 69.8968 50.3336 70.04 50.0987 70.1627C48.2336 71.1666 46.1507 71.6857 44.0377 71.6733C42.1713 71.648 40.3341 71.2019 38.66 70.3676C37.0154 69.5432 35.5506 68.3946 34.3518 66.9892C33.888 66.4561 33.5054 65.856 33.2166 65.2089C33.0794 64.9019 32.9771 64.5801 32.9117 64.2498C32.8443 63.9348 32.7989 63.6154 32.7759 63.2939C32.7588 63.0047 32.8224 62.8424 32.9637 62.7985C33.0028 62.7889 33.0431 62.7853 33.0832 62.7878C33.1334 62.7928 33.1829 62.8037 33.2306 62.8204C33.2901 62.8408 33.3479 62.866 33.4035 62.8957C33.4705 62.9262 33.5313 62.9689 33.583 63.0217C33.8694 63.3372 34.1914 63.63 34.4869 63.9311C34.7561 64.2493 35.0308 64.5628 35.3108 64.8661C35.7696 65.3638 36.1975 65.9102 36.6976 66.3806L36.7283 66.3554Z"
        fill="#7269E3"
      />
    </svg>