<svg width="20" height="20" viewBox="0 0 20 20" fill="none" xmlns="http://www.w3.org/2000/svg">
<path d="M9.99999 4.99967C10.4602 4.99967 10.8333 4.62657 10.8333 4.16634C10.8333 3.70611 10.4602 3.33301 9.99999 3.33301C9.53974 3.33301 9.16666 3.70611 9.16666 4.16634C9.16666 4.62657 9.53974 4.99967 9.99999 4.99967Z" stroke="#B3B5B4" stroke-width="1.5" stroke-linecap="round" stroke-linejoin="round"/>
<path d="M9.99999 10.8337C10.4602 10.8337 10.8333 10.4606 10.8333 10.0003C10.8333 9.54008 10.4602 9.16699 9.99999 9.16699C9.53974 9.16699 9.16666 9.54008 9.16666 10.0003C9.16666 10.4606 9.53974 10.8337 9.99999 10.8337Z" stroke="#B3B5B4" stroke-width="1.5" stroke-linecap="round" stroke-linejoin="round"/>
<path d="M9.99999 16.6667C10.4602 16.6667 10.8333 16.2936 10.8333 15.8333C10.8333 15.3731 10.4602 15 9.99999 15C9.53974 15 9.16666 15.3731 9.16666 15.8333C9.16666 16.2936 9.53974 16.6667 9.99999 16.6667Z" stroke="#B3B5B4" stroke-width="1.5" stroke-linecap="round" stroke-linejoin="round"/>
<path d="M15.8333 4.99967C16.2936 4.99967 16.6667 4.62657 16.6667 4.16634C16.6667 3.70611 16.2936 3.33301 15.8333 3.33301C15.3731 3.33301 15 3.70611 15 4.16634C15 4.62657 15.3731 4.99967 15.8333 4.99967Z" stroke="#B3B5B4" stroke-width="1.5" stroke-linecap="round" stroke-linejoin="round"/>
<path d="M15.8333 10.8337C16.2936 10.8337 16.6667 10.4606 16.6667 10.0003C16.6667 9.54008 16.2936 9.16699 15.8333 9.16699C15.3731 9.16699 15 9.54008 15 10.0003C15 10.4606 15.3731 10.8337 15.8333 10.8337Z" stroke="#B3B5B4" stroke-width="1.5" stroke-linecap="round" stroke-linejoin="round"/>
<path d="M15.8333 16.6667C16.2936 16.6667 16.6667 16.2936 16.6667 15.8333C16.6667 15.3731 16.2936 15 15.8333 15C15.3731 15 15 15.3731 15 15.8333C15 16.2936 15.3731 16.6667 15.8333 16.6667Z" stroke="#B3B5B4" stroke-width="1.5" stroke-linecap="round" stroke-linejoin="round"/>
<path d="M4.16668 4.99967C4.62691 4.99967 5.00001 4.62657 5.00001 4.16634C5.00001 3.70611 4.62691 3.33301 4.16668 3.33301C3.70644 3.33301 3.33334 3.70611 3.33334 4.16634C3.33334 4.62657 3.70644 4.99967 4.16668 4.99967Z" stroke="#B3B5B4" stroke-width="1.5" stroke-linecap="round" stroke-linejoin="round"/>
<path d="M4.16668 10.8337C4.62691 10.8337 5.00001 10.4606 5.00001 10.0003C5.00001 9.54008 4.62691 9.16699 4.16668 9.16699C3.70644 9.16699 3.33334 9.54008 3.33334 10.0003C3.33334 10.4606 3.70644 10.8337 4.16668 10.8337Z" stroke="#B3B5B4" stroke-width="1.5" stroke-linecap="round" stroke-linejoin="round"/>
<path d="M4.16668 16.6667C4.62691 16.6667 5.00001 16.2936 5.00001 15.8333C5.00001 15.3731 4.62691 15 4.16668 15C3.70644 15 3.33334 15.3731 3.33334 15.8333C3.33334 16.2936 3.70644 16.6667 4.16668 16.6667Z" stroke="#B3B5B4" stroke-width="1.5" stroke-linecap="round" stroke-linejoin="round"/>
</svg>
